<?xml version="1.0" encoding="UTF-8"?>
<svg width="1002px" height="397px" viewBox="0 0 1002 397" version="1.1" xmlns="http://www.w3.org/2000/svg" xmlns:xlink="http://www.w3.org/1999/xlink">
    <!-- Generator: Sketch 52.6 (67491) - http://www.bohemiancoding.com/sketch -->
    <title>/ Hero / </title>
    <desc>Created with Sketch.</desc>
    <defs>
        <polygon id="path-1" points="21.2622529 0.000482082597 95.293749 0.000482082597 95.293749 57.5317371 21.2622529 57.5317371"></polygon>
        <polygon id="path-3" points="39.4381417 34.2253194 5.69003484 34.2253194 0.0753542393 0.530824623 45.0529152 0.530824623"></polygon>
        <polygon id="path-5" points="30.5340767 0.303925668 25.5007666 30.5089895 0.456678281 30.5089895"></polygon>
        <polygon id="path-7" points="5.69003484 0.828246225 39.4381417 0.828246225 45.0529152 34.522741 0.0753542393 34.522741"></polygon>
        <path d="M66.7053194,33.3219977 C66.7053194,51.5198142 51.9349593,66.2719628 33.7138211,66.2719628 C15.49259,66.2719628 0.722229965,51.5198142 0.722229965,33.3219977 C0.722229965,15.1249245 15.49259,0.372775842 33.7138211,0.372775842 C51.9349593,0.372775842 66.7053194,15.1249245 66.7053194,33.3219977 Z" id="path-9"></path>
        <path d="M11.1647851,34.9863879 L1.08134727,24.9167015 C0.929988386,24.5532172 0.797026713,24.2310801 0.645667828,23.8675958 L0.645667828,1.58615563 C1.22629501,1.00552846 1.55196283,0.681068525 2.13259001,0.101184669 L5.8295935,0.101184669 C6.41012776,0.681068525 6.73505226,1.00552846 7.31567944,1.58615563 L7.31567944,21.1075494 C7.46694541,21.4710337 7.60074332,21.7931707 7.75126597,22.1566551 L15.8811614,30.2760511 C15.8811614,31.0961208 15.8803252,31.5567015 15.8803252,32.3766783 L13.2672706,34.9863879 L11.1647851,34.9863879 Z" id="path-11"></path>
        <path d="M36.5013705,7.42020906 C20.1485714,7.42020906 6.84441347,20.7072706 6.84441347,37.0391638 C6.84441347,53.370964 20.1485714,66.6580256 36.5013705,66.6580256 C52.8541696,66.6580256 66.1575842,53.370964 66.1575842,37.0391638 C66.1575842,20.7072706 52.8541696,7.42020906 36.5013705,7.42020906 Z M36.5013705,73.319489 C16.4707085,73.319489 0.174494774,57.0449245 0.174494774,37.0391638 C0.174494774,17.0341463 16.4707085,0.758002323 36.5013705,0.758002323 C56.5320325,0.758002323 72.8283391,17.0341463 72.8283391,37.0391638 C72.8283391,57.0449245 56.5320325,73.319489 36.5013705,73.319489 Z" id="path-13"></path>
        <polygon id="path-15" points="1.50373984 19.0501278 0.0342857143 17.5834611 16.8968177 0.742578397 18.3662718 2.2100813"></polygon>
        <path d="M13.3498722,7.30573751 C13.3498722,10.935935 10.4031591,13.8796748 6.76831591,13.8796748 C3.13347271,13.8796748 0.186666667,10.935935 0.186666667,7.30573751 C0.186666667,3.67628339 3.13347271,0.732543554 6.76831591,0.732543554 C10.4031591,0.732543554 13.3498722,3.67628339 13.3498722,7.30573751 Z" id="path-17"></path>
        <path d="M8.64139373,17.779698 L4.71739837,17.779698 C3.17240418,16.2366551 2.30671312,15.3712427 0.761626016,13.8281998 L0.761626016,4.50062718 C2.30671312,2.95674797 3.17240418,2.09133566 4.71739837,0.54912892 L8.64139373,0.54912892 C10.1863879,2.09133566 11.0529152,2.95674797 12.5971661,4.50062718 L12.5971661,13.8281998 C11.0529152,15.3712427 10.1863879,16.2366551 8.64139373,17.779698 Z" id="path-19"></path>
    </defs>
    <g id="Layouts" stroke="none" stroke-width="1" fill="none" fill-rule="evenodd">
        <g id="Sprzedaje-(Kontra)-C" transform="translate(-168.000000, -415.000000)">
            <g id="/-Hero-/-" transform="translate(154.000000, 75.000000)">
                <g id="Group" transform="translate(14.000000, 340.000000)">
                    <g id="illustration/avatar/undefined/avatar-undefined-2" transform="translate(702.000000, 306.000000)">
                        <g id="Group" transform="translate(3.807935, 3.775566)">
                            <path d="M0,43.553994 C0,67.6082116 19.6918769,87.107988 43.9830627,87.107988 C68.2742485,87.107988 87.9661254,67.6082116 87.9661254,43.553994 C87.9661254,19.4997764 68.2742485,-1.13686838e-13 43.9830627,-1.13686838e-13 C19.6918769,-1.13686838e-13 0,19.4997764 0,43.553994 Z" id="bg" fill="#D8DFE0"></path>
                            <path d="M74.3683218,75.0439709 C66.4717932,82.5176573 55.7687764,87.107988 43.9830627,87.107988 C32.197349,87.107988 21.4943323,82.5176573 13.5978037,75.0439709 L13.5978037,62.4228908 L74.3683218,62.4228908 L74.3683218,75.0439709 Z" id="body" fill="#406367"></path>
                            <path d="M67.3501424,43.5540593 C67.3501424,56.3334545 56.8883311,66.6932075 43.9830407,66.6932075 C31.0779703,66.6932075 20.616159,56.3334545 20.616159,43.5540593 C20.616159,30.7746642 31.0779703,20.4149112 43.9830407,20.4149112 C56.8883311,20.4149112 67.3501424,30.7746642 67.3501424,43.5540593" id="face" fill="#EBEEEF"></path>
                            <path d="M28.243205,41.0808537 L28.2439876,41.0870304 L27.9375236,41.1251092 C27.9227102,41.1270176 27.9078846,41.1288936 27.8930468,41.1307369 C27.8782281,41.1325783 27.863413,41.1343853 27.8486017,41.1361579 L18.3678108,42.3141642 L17.1758007,32.9069306 C17.1747283,32.8986396 17.1736664,32.8903447 17.1726151,32.8820459 C17.1715829,32.8738982 17.1705614,32.8657516 17.1695507,32.8576062 L17.128588,32.5343326 L17.1349168,32.5335463 C16.68009,27.4622013 20.3597431,22.9053327 25.5027872,22.2661955 C27.2032781,22.0549422 28.8556047,22.2978788 30.3355107,22.8993978 C30.7818939,20.7904411 31.7073246,18.746841 33.1323532,16.9308094 C38.0303446,10.6888335 47.0177984,9.44621681 53.4420707,14.0299889 L53.4481079,14.0222955 L53.8627711,14.3413634 C53.867944,14.345333 53.873115,14.3493066 53.8782842,14.353284 C53.8834743,14.3572776 53.888661,14.3612739 53.8938442,14.365273 L65.5526866,23.3363171 L56.4986695,34.8747459 C56.4928553,34.8821843 56.4870328,34.8896189 56.4812019,34.8970497 C56.4754598,34.904367 56.4697122,34.9116774 56.4639589,34.918981 L56.1469086,35.3230295 L56.1391408,35.3170525 C51.0575563,41.3301313 42.038729,42.3247772 35.7352708,37.4745751 C35.4254818,37.2362052 35.1278869,36.9880556 34.8425852,36.7309081 C33.4234669,38.980188 31.0698378,40.6262503 28.243205,41.0808537 Z" id="hair" fill="#7F9799"></path>
                        </g>
                    </g>
                    <g id="Group-5" transform="translate(943.000000, 277.000000)">
                        <path d="M34.6515748,0.458661417 C32.976378,0.163385827 31.2559055,-2.94875235e-13 29.496063,-2.94875235e-13 C13.2057087,-2.94875235e-13 -3.90798505e-14,13.2057087 -3.90798505e-14,29.4950787 C-3.90798505e-14,45.7854331 13.2057087,58.9901575 29.496063,58.9901575 C31.2559055,58.9901575 32.976378,58.8277559 34.6515748,58.5314961 C27.4891732,50.9576772 23.0885827,40.7431102 23.0885827,29.4950787 C23.0885827,18.2470472 27.4891732,8.03346457 34.6515748,0.458661417" id="Fill-20" fill="#FF4134"></path>
                        <path d="M58.9906496,29.4949803 C58.9906496,14.9654528 48.4808071,2.89950787 34.6510827,0.458562992 C27.4886811,8.03336614 23.0880906,18.2469488 23.0880906,29.4949803 C23.0880906,40.7430118 27.4886811,50.9575787 34.6510827,58.5313976 C48.4808071,56.091437 58.9906496,44.0245079 58.9906496,29.4949803" id="Fill-22" fill="#FFD6C9"></path>
                    </g>
                    <g id="Group-6" transform="translate(0.000000, 207.000000)">
                        <polygon id="Fill-1" fill="#002F34" points="129.551695 68.8418067 107.814554 58.7911153 111.080037 51.7283974 132.817178 61.7790888"></polygon>
                        <path d="M52.9732169,22.4447056 C34.2714502,13.7970776 12.1008073,21.94829 3.45317934,40.6500568 C-5.19358683,59.3518236 2.95762562,81.5224664 21.6593924,90.1700944 C40.3611591,98.8168606 62.531802,90.66651 71.1785681,71.9638814 C79.8253343,53.2629765 71.6749837,31.0923336 52.9732169,22.4447056 M43.3069029,43.3501782 C50.4514949,46.6535825 53.5764997,55.1538371 50.2730955,62.2984291 C46.9696913,69.4430211 38.4702985,72.5671642 31.3257065,69.2637599 C24.1811145,65.9603557 21.0561096,57.4609629 24.3595138,50.3163709 C27.6629181,43.1717789 36.1623109,40.046774 43.3069029,43.3501782" id="Fill-2" fill="#002F34"></path>
                        <path d="M154.273017,69.2828064 C135.57125,60.6360403 113.400608,68.7863909 104.753841,87.4890195 C96.1062134,106.189924 104.257426,128.360567 122.959193,137.008195 C141.660959,145.654961 163.831602,137.504611 172.478368,118.802844 C181.125135,100.101077 172.974784,77.9304344 154.273017,69.2828064 M144.606703,90.1882791 C151.751295,93.4916833 154.8763,101.991938 151.572896,109.13653 C148.269491,116.281122 139.770099,119.406127 132.625507,116.102723 C125.480915,112.799318 122.35591,104.299064 125.659314,97.1544717 C128.962718,90.0098797 137.462973,86.8848748 144.606703,90.1882791" id="Fill-4" fill="#002F34"></path>
                        <path d="M97.0916327,78.6762643 L133.505782,95.5130254 L129.880053,55.5593293 L97.0916327,78.6762643 Z M91.5817108,71.4815588 L122.508753,49.676936 L86.5028103,33.0281622 L91.5817108,71.4815588 Z M92.5754501,86.5645449 L84.5798922,87.6207937 L77.4278441,33.4711709 L40.0280608,59.7786892 L34.818283,52.3721001 L76.089906,23.3413675 L74.667094,12.5689662 L83.6439421,11.3830846 L85.0994511,22.403042 L131.054621,43.6518072 L131.071105,43.6401849 L138.188981,46.9315235 L143.231563,102.504211 L136.822976,107.023661 L92.5754501,86.5645449 Z" id="Combined-Shape" fill="#3A77FF"></path>
                        <path d="M94.9195561,98.1016257 L74.6716617,88.7395385 L79.0152979,79.3455635 L99.2631923,88.7076507 L94.9195561,98.1016257 Z" id="Combined-Shape" fill="#23E5DB"></path>
                        <polygon id="Fill-18" fill="#002F34" points="148.294916 48.9320954 122.999268 37.2361656 126.800811 29.0168684 152.095597 40.7127982"></polygon>
                        <path d="M71.3124107,9.46162886 C70.5746821,5.30673405 73.3446119,1.34058056 77.4995068,0.602851882 C81.6544016,-0.134876797 85.6205551,2.63505308 86.3582837,6.7899479 C87.0960124,10.9448427 84.3260825,14.9109962 80.1711877,15.6487249 C76.0162929,16.3864536 72.0501394,13.6165237 71.3124107,9.46162886" id="Fill-16" fill="#002F34"></path>
                    </g>
                    <g id="Group-4" transform="translate(80.000000, -0.000000)">
                        <mask id="mask-2" fill="white">
                            <use xlink:href="#path-1"></use>
                        </mask>
                        <g id="Clip-31"></g>
                        <path d="M91.8131126,57.5317371 L21.2622529,22.2037602 L21.5919974,17.6114414 L74.5314157,2.92337583e-13 L77.6823076,1.57833842 L95.293749,54.5167925 L91.8131126,57.5317371 Z" id="Combined-Shape" fill="#002F34"></path>
                        <polygon id="Fill-33" fill="#F8DD3E" points="70.5498955 99.9947292 6.26437677e-14 64.6667524 21.3871123 21.9571268 91.937972 57.2841395"></polygon>
                        <path d="M41.6203117,55.4853929 C39.5415716,59.6380524 34.489346,61.3195565 30.3357223,59.2398522 C26.1820987,57.1601478 24.5015587,52.1079222 26.5812631,47.9542986 C28.6609674,43.8016391 33.713193,42.1210991 37.8658525,44.1998393 C42.0194761,46.2805078 43.7000161,51.3327334 41.6203117,55.4853929" id="Fill-35" fill="#002F34"></path>
                        <path d="M66.7469388,68.0675558 C64.6672345,72.2202153 59.6150088,73.9007553 55.4613852,71.8220151 C51.3087257,69.7423108 49.6281858,64.6900852 51.7069259,60.5364615 C53.7875944,56.383802 58.83982,54.7032621 62.9924795,56.7820022 C67.145139,58.8617066 68.8256789,63.9139322 66.7469388,68.0675558" id="Fill-37" fill="#002F34"></path>
                        <polygon id="Fill-39" fill="#002F34" points="29.6002571 79.4892496 14.5612084 71.9581552 26.5814559 47.9542986 41.6205046 55.4853929"></polygon>
                        <polygon id="Fill-28" fill="#002F34" points="22.3783706 19.9756709 75.3177888 2.36422947 92.9292303 55.3036478"></polygon>
                    </g>
                    <g id="illustration/items/watch" transform="translate(889.000000, 106.000000) rotate(-45.000000) translate(-889.000000, -106.000000) translate(825.000000, 42.000000)">
                        <g id="Group-4" transform="translate(24.685714, 6.857143)">
                            <g id="Group-502" transform="translate(13.937282, 79.907085)">
                                <mask id="mask-4" fill="white">
                                    <use xlink:href="#path-3"></use>
                                </mask>
                                <g id="Clip-501"></g>
                                <polygon id="Fill-500" fill="#3A77FF" mask="url(#mask-4)" points="-4.5704065 -4.11493612 49.698676 -4.11493612 49.698676 38.8710801 -4.5704065 38.8710801"></polygon>
                            </g>
                            <g id="Group-505" transform="translate(27.874564, 83.623693)">
                                <mask id="mask-6" fill="white">
                                    <use xlink:href="#path-5"></use>
                                </mask>
                                <g id="Clip-504"></g>
                                <polygon id="Fill-503" fill="#1D3C81" mask="url(#mask-6)" points="-4.18908246 -4.34183508 35.1798374 -4.34183508 35.1798374 35.1547503 -4.18908246 35.1547503"></polygon>
                            </g>
                            <g id="Group-508" transform="translate(13.937282, 0.000000)">
                                <mask id="mask-8" fill="white">
                                    <use xlink:href="#path-7"></use>
                                </mask>
                                <g id="Clip-507"></g>
                                <polygon id="Fill-506" fill="#3A77FF" mask="url(#mask-8)" points="-4.5704065 -3.81751452 49.698676 -3.81751452 49.698676 39.1685017 -4.5704065 39.1685017"></polygon>
                            </g>
                            <g id="Group-511" transform="translate(2.787456, 24.157956)">
                                <mask id="mask-10" fill="white">
                                    <use xlink:href="#path-9"></use>
                                </mask>
                                <g id="Clip-510"></g>
                                <polygon id="Fill-509" fill="#CEDDFF" mask="url(#mask-10)" points="-3.92353078 -4.2729849 71.3510801 -4.2729849 71.3510801 70.9177236 -3.92353078 70.9177236"></polygon>
                            </g>
                            <g id="Group-514" transform="translate(32.520325, 34.378630)">
                                <mask id="mask-12" fill="white">
                                    <use xlink:href="#path-11"></use>
                                </mask>
                                <g id="Clip-513"></g>
                                <polygon id="Fill-512" fill="#3A77FF" mask="url(#mask-12)" points="-4.00009292 -4.54457607 20.5269222 -4.54457607 20.5269222 39.6321487 -4.00009292 39.6321487"></polygon>
                            </g>
                            <g id="Group-517" transform="translate(0.000000, 20.441347)">
                                <mask id="mask-14" fill="white">
                                    <use xlink:href="#path-13"></use>
                                </mask>
                                <g id="Clip-516"></g>
                                <polygon id="Fill-515" fill="#003035" mask="url(#mask-14)" points="-4.47126597 -3.88775842 77.4740999 -3.88775842 77.4740999 77.9652497 -4.47126597 77.9652497"></polygon>
                            </g>
                            <g id="Group-520" transform="translate(20.441347, 54.819977)">
                                <mask id="mask-16" fill="white">
                                    <use xlink:href="#path-15"></use>
                                </mask>
                                <g id="Clip-519"></g>
                                <polygon id="Fill-518" fill="#FF5636" mask="url(#mask-16)" points="-4.61147503 -3.90318235 23.0120325 -3.90318235 23.0120325 23.6958885 -4.61147503 23.6958885"></polygon>
                            </g>
                            <g id="Group-523" transform="translate(29.732869, 50.174216)">
                                <mask id="mask-18" fill="white">
                                    <use xlink:href="#path-17"></use>
                                </mask>
                                <g id="Clip-522"></g>
                                <polygon id="Fill-521" fill="#FFFFFF" mask="url(#mask-18)" points="-4.45909408 -3.91321719 17.995633 -3.91321719 17.995633 18.5254355 -4.45909408 18.5254355"></polygon>
                            </g>
                            <g id="Group-526" transform="translate(65.969803, 48.315912)">
                                <mask id="mask-20" fill="white">
                                    <use xlink:href="#path-19"></use>
                                </mask>
                                <g id="Clip-525"></g>
                                <polygon id="Fill-524" fill="#003035" mask="url(#mask-20)" points="-3.88413473 -4.09663182 17.2429268 -4.09663182 17.2429268 22.4254588 -3.88413473 22.4254588"></polygon>
                            </g>
                        </g>
                    </g>
                </g>
                <g id="Group-36" transform="translate(267.000000, 425.000000)">
                    <polygon id="Fill-1" fill="#F8DD3E" points="0 210.784314 160 210.784314 160 29.7843137 0 29.7843137"></polygon>
                    <polygon id="Fill-2" fill="#F8FBCF" points="14 177.784314 147 177.784314 147 44.7843137 14 44.7843137"></polygon>
                    <polygon id="Fill-3" fill="#002F34" points="32 104.784314 80.5002058 55.7843137 129 104.784314"></polygon>
                    <path d="M39.5258384,101.627322 L121.474197,101.627322 L80.5001914,60.3139364 L39.5258384,101.627322 Z M30,102.52813 L78.3438063,53.7843137 L82.6566039,53.784323 L131,102.528139 L128.843597,107.784314 L32.1563942,107.784314 L30,102.52813 Z" id="Stroke-4" fill="#002F34" fill-rule="nonzero"></path>
                    <polygon id="Fill-5" fill="#CFC980" points="32 165.784314 129 165.784314 129 106.784314 32 106.784314"></polygon>
                    <g id="Group-35" transform="translate(38.000000, 0.784314)">
                        <path d="M34.0935752,132.101275 C34.0935752,137.817908 29.4575442,142.452035 23.7385634,142.452035 C18.0199948,142.452035 13.3835516,137.817908 13.3835516,132.101275 C13.3835516,126.384642 18.0199948,121.750515 23.7385634,121.750515 C29.4575442,121.750515 34.0935752,126.384642 34.0935752,132.101275" id="Fill-6" fill="#F8FBCF"></path>
                        <path d="M68.6940067,132.101275 C68.6940067,137.817908 64.0579757,142.452035 58.3389949,142.452035 C52.6200142,142.452035 47.9839832,137.817908 47.9839832,132.101275 C47.9839832,126.384642 52.6200142,121.750515 58.3389949,121.750515 C64.0579757,121.750515 68.6940067,126.384642 68.6940067,132.101275" id="Fill-8" fill="#F8FBCF"></path>
                        <polygon id="Fill-10" fill="#F8FBCF" points="13.3836341 165.142407 34.0936576 165.142407 34.0936576 132.100657 13.3836341 132.100657"></polygon>
                        <polygon id="Fill-12" fill="#002F34" points="3.7149989 97.8470121 15.1121489 97.8470121 15.1121489 69.2968138 3.7149989 69.2968138"></polygon>
                        <path d="M3.7149989,100.913629 L0.649528259,97.8470121 L0.649528259,69.2968138 L3.7149989,66.2301966 L15.1121489,66.2301966 L18.1776195,69.2968138 L18.1776195,97.8470121 L15.1121489,100.913629 L3.7149989,100.913629 Z M6.78046954,94.7803948 L12.0466783,94.7803948 L12.0466783,72.363431 L6.78046954,72.363431 L6.78046954,94.7803948 Z" id="Stroke-13" fill="#002F34" fill-rule="nonzero"></path>
                        <polygon id="Fill-14" fill="#F8DD3E" points="361.265695 190.623516 486.910957 190.623516 486.910957 48.3595897 361.265695 48.3595897"></polygon>
                        <polygon id="Fill-15" fill="#F8FBCF" points="374.962722 159.401462 472.769949 159.401462 472.769949 61.6343914 374.962722 61.6343914"></polygon>
                        <polygon id="Fill-16" fill="#F8DD3E" points="136.452819 238.587931 346.820455 238.587931 346.820455 0.394762069 136.452819 0.394762069"></polygon>
                        <polygon id="Fill-17" fill="#F8FBCF" points="150.149434 197.578416 332.984504 197.578416 332.984504 14.8184121 150.149434 14.8184121"></polygon>
                        <polygon id="Fill-18" fill="#002F34" points="451.535146 96.335131 459.475679 96.335131 459.475679 88.3978586 451.535146 88.3978586"></polygon>
                        <polygon id="Stroke-19" stroke="#002F34" stroke-width="3.7136" points="451.535146 96.335131 459.475679 96.335131 459.475679 88.3978586 451.535146 88.3978586"></polygon>
                        <polygon id="Fill-20" fill="#CFC980" points="386.526828 143.993379 461.650648 143.993379 461.650648 101.549452 386.526828 101.549452"></polygon>
                        <path d="M386.526828,147.197009 L383.324396,143.993379 L383.324396,101.549452 L386.526828,98.3458216 L461.650648,98.3458216 L464.85308,101.549452 L464.85308,143.993379 L461.650648,147.197009 L386.526828,147.197009 Z M458.448215,140.789749 L458.448215,104.753082 L389.72926,104.753082 L389.72926,140.789749 L458.448215,140.789749 Z" id="Stroke-21" fill="#CFC980" fill-rule="nonzero"></path>
                        <path d="M424.088614,142.867401 C413.002704,142.867401 403.983756,133.852568 403.983756,122.770797 C403.983756,111.690263 413.002704,102.67543 424.088614,102.67543 C435.174112,102.67543 444.19306,111.690263 444.19306,122.770797 C444.19306,133.852568 435.174112,142.867401 424.088614,142.867401" id="Fill-22" fill="#CFC980"></path>
                        <path d="M424.088614,98.3458216 C410.593172,98.3458216 399.653194,109.28172 399.653194,122.770797 C399.653194,136.261523 410.593172,147.197009 424.088614,147.197009 C437.583644,147.197009 448.523622,136.261523 448.523622,122.770797 C448.523622,109.28172 437.583644,98.3458216 424.088614,98.3458216 M424.088614,107.004627 C432.786016,107.004627 439.861673,114.077791 439.861673,122.770797 C439.861673,131.465453 432.786016,138.538204 424.088614,138.538204 C415.3908,138.538204 408.315143,131.465453 408.315143,122.770797 C408.315143,114.077791 415.3908,107.004627 424.088614,107.004627" id="Fill-23" fill="#F8FBCF"></path>
                        <polygon id="Stroke-24" fill="#F8FBCF" fill-rule="nonzero" points="449.965425 105.200136 449.965425 101.592472 461.622698 101.592472 461.622698 105.200136"></polygon>
                        <polygon id="Stroke-25" fill="#F8FBCF" fill-rule="nonzero" points="449.965425 110.780167 449.965425 107.172504 461.622698 107.172504 461.622698 110.780167"></polygon>
                        <path d="M395.828571,106.198496 C395.828571,108.766098 393.746356,110.847458 391.1777,110.847458 C388.609043,110.847458 386.526828,108.766098 386.526828,106.198496 C386.526828,103.630894 388.609043,101.549534 391.1777,101.549534 C393.746356,101.549534 395.828571,103.630894 395.828571,106.198496" id="Fill-26" fill="#002F34"></path>
                        <path d="M191.628143,96.0822443 C173.18914,96.0822443 158.24097,111.023865 158.24097,129.45571 C158.24097,147.887143 173.18914,162.828763 191.628143,162.828763 C210.067146,162.828763 225.015316,147.887143 225.015316,129.45571 C225.015316,111.023865 210.067146,96.0822443 191.628143,96.0822443 M191.628143,116.685693 C198.672469,116.685693 204.403405,122.414275 204.403405,129.45571 C204.403405,136.496732 198.672469,142.225315 191.628143,142.225315 C184.583816,142.225315 178.85288,136.496732 178.85288,129.45571 C178.85288,122.414275 184.583816,116.685693 191.628143,116.685693" id="Fill-27" fill="#002F34"></path>
                        <path d="M291.505342,96.0822443 C273.066339,96.0822443 258.118581,111.023865 258.118581,129.45571 C258.118581,147.887143 273.066339,162.828763 291.505342,162.828763 C309.944345,162.828763 324.892515,147.887143 324.892515,129.45571 C324.892515,111.023865 309.944345,96.0822443 291.505342,96.0822443 M291.505342,116.685693 C298.549668,116.685693 304.280604,122.414275 304.280604,129.45571 C304.280604,136.496732 298.549668,142.225315 291.505342,142.225315 C284.461015,142.225315 278.730492,136.496732 278.730492,129.45571 C278.730492,122.414275 284.461015,116.685693 291.505342,116.685693" id="Fill-28" fill="#002F34"></path>
                        <path d="M263.030894,83.9706646 L270.041761,83.9706897 L295.010618,127.201257 L291.505177,133.277443 L241.567051,133.277443 L238.061625,127.201232 L263.030894,83.9706646 Z M248.581998,125.177404 L284.490288,125.177404 L266.536291,94.0922214 L248.581998,125.177404 Z" id="Stroke-29" fill="#CFC980" fill-rule="nonzero"></path>
                        <polygon id="Stroke-30" fill="#CFC980" fill-rule="nonzero" points="195.13137 131.257253 188.124916 127.197264 211.974958 86.0076748 215.478185 83.9876493 267.655176 83.9876493 267.655176 92.087689 217.811755 92.087689"></polygon>
                        <polygon id="Stroke-31" fill="#CFC980" fill-rule="nonzero" points="248.624456 132.802392 241.784827 137.137724 205.54414 79.9198879 212.38377 75.5845556"></polygon>
                        <polygon id="Fill-32" fill="#F8FBCF" points="234.971158 140.947366 253.298444 140.947366 253.298444 133.32409 234.971158 133.32409"></polygon>
                        <path d="M201.648871,78.6554357 C199.489155,75.5587374 200.249322,71.2983564 203.347292,69.1395271 C206.445262,66.9806978 210.707393,67.740965 212.867109,70.8372512 C215.026825,73.9339495 214.266246,78.1943305 211.168688,80.3531598 C208.070718,82.5119891 203.808587,81.752134 201.648871,78.6554357" id="Fill-33" fill="#002F34"></path>
                        <polygon id="Stroke-34" fill="#002F34" fill-rule="nonzero" points="254.066114 81.8022416 254.066114 73.7022019 279.006526 73.7022019 279.006526 81.8022416"></polygon>
                    </g>
                </g>
            </g>
        </g>
    </g>
</svg>